<svg xmlns="http://www.w3.org/2000/svg" xmlns:xlink="http://www.w3.org/1999/xlink" width="500" zoomAndPan="magnify" viewBox="0 0 375 374.999991" height="500" preserveAspectRatio="xMidYMid meet" version="1.0"><defs><g/><clipPath id="9f9195d4da"><path d="M 93.554688 19.078125 L 264.214844 19.078125 L 264.214844 211.828125 L 93.554688 211.828125 Z M 93.554688 19.078125 " clip-rule="nonzero"/></clipPath><clipPath id="1025f72d7b"><path d="M 258.621094 206 L 309.621094 206 L 309.621094 230.953125 L 258.621094 230.953125 Z M 258.621094 206 " clip-rule="nonzero"/></clipPath><clipPath id="0419bd1a46"><path d="M 258.621094 218 L 309.621094 218 L 309.621094 230.953125 L 258.621094 230.953125 Z M 258.621094 218 " clip-rule="nonzero"/></clipPath></defs><g clip-path="url(#9f9195d4da)"><path fill="#ffffff" d="M 223.03125 110.636719 C 222.066406 110.636719 221.28125 109.851562 221.28125 108.882812 C 221.28125 100.34375 215.652344 93.394531 208.738281 93.394531 C 201.824219 93.394531 196.199219 100.34375 196.199219 108.882812 C 196.199219 109.851562 195.414062 110.636719 194.449219 110.636719 C 193.480469 110.636719 192.695312 109.851562 192.695312 108.882812 C 192.695312 98.410156 199.894531 89.890625 208.738281 89.890625 C 217.589844 89.890625 224.785156 98.410156 224.785156 108.882812 C 224.785156 109.851562 224 110.636719 223.03125 110.636719 Z M 159.992188 126.777344 C 160.960938 126.777344 161.746094 127.5625 161.746094 128.527344 L 161.746094 128.53125 C 161.746094 139.128906 168.765625 147.75 177.394531 147.75 C 186.027344 147.75 193.046875 139.128906 193.046875 128.53125 L 193.046875 128.527344 C 193.046875 127.5625 193.832031 126.777344 194.800781 126.777344 C 195.769531 126.777344 196.554688 127.5625 196.554688 128.527344 C 196.554688 141.058594 187.960938 151.253906 177.394531 151.253906 C 166.832031 151.253906 158.238281 141.058594 158.238281 128.527344 C 158.238281 127.5625 159.023438 126.777344 159.992188 126.777344 Z M 132.226562 108.882812 C 132.226562 109.851562 131.445312 110.636719 130.476562 110.636719 C 129.507812 110.636719 128.722656 109.851562 128.722656 108.882812 C 128.722656 98.410156 135.921875 89.890625 144.769531 89.890625 C 153.613281 89.890625 160.8125 98.410156 160.8125 108.882812 C 160.8125 109.851562 160.027344 110.636719 159.0625 110.636719 C 158.09375 110.636719 157.308594 109.851562 157.308594 108.882812 C 157.308594 100.34375 151.683594 93.394531 144.769531 93.394531 C 137.851562 93.394531 132.226562 100.34375 132.226562 108.882812 Z M 244.914062 59.101562 L 250.203125 40.480469 C 250.734375 40.558594 251.269531 40.609375 251.816406 40.609375 C 252.179688 40.609375 252.546875 40.59375 252.914062 40.554688 C 255.808594 40.265625 258.410156 38.867188 260.242188 36.625 C 262.054688 34.402344 262.894531 31.605469 262.601562 28.757812 C 262 22.855469 256.679688 18.535156 250.738281 19.132812 C 247.84375 19.425781 245.242188 20.820312 243.410156 23.0625 C 241.597656 25.289062 240.757812 28.082031 241.046875 30.929688 C 241.429688 34.683594 243.722656 37.789062 246.863281 39.40625 L 241.472656 58.398438 C 240.300781 58.238281 239.105469 58.152344 237.890625 58.152344 L 119.875 58.152344 C 119.214844 58.152344 118.566406 58.183594 117.917969 58.230469 L 112.574219 39.40625 C 115.714844 37.789062 118.007812 34.683594 118.390625 30.929688 C 118.683594 28.082031 117.84375 25.289062 116.027344 23.0625 C 114.195312 20.820312 111.59375 19.425781 108.703125 19.132812 C 102.773438 18.53125 97.4375 22.855469 96.835938 28.757812 C 96.542969 31.609375 97.382812 34.402344 99.199219 36.625 C 101.03125 38.867188 103.628906 40.265625 106.523438 40.554688 C 106.890625 40.59375 107.257812 40.609375 107.621094 40.609375 C 108.167969 40.609375 108.707031 40.558594 109.234375 40.476562 L 114.414062 58.71875 C 102.515625 61.222656 93.554688 71.734375 93.554688 84.285156 L 93.554688 154.832031 C 93.554688 168.605469 104.441406 179.902344 118.121094 180.679688 L 118.121094 208.945312 C 118.121094 210.105469 118.8125 211.15625 119.882812 211.621094 C 120.257812 211.785156 120.65625 211.863281 121.050781 211.863281 C 121.777344 211.863281 122.496094 211.59375 123.039062 211.082031 L 154.03125 182.542969 C 155.398438 181.367188 157.152344 180.722656 158.960938 180.722656 L 237.890625 180.722656 C 252.40625 180.722656 264.210938 168.996094 264.210938 154.585938 L 264.210938 84.285156 C 264.210938 72.289062 256.027344 62.160156 244.914062 59.101562 " fill-opacity="1" fill-rule="nonzero"/></g><g fill="#ffffff" fill-opacity="1"><g transform="translate(96.938934, 279.374329)"><g><path d="M 41.03125 0 L 41.03125 -27.359375 L 31.921875 -27.359375 L 31.921875 -36.484375 L 41.03125 -36.484375 L 41.03125 -45.59375 L 50.15625 -45.59375 L 50.15625 0 Z M 4.5625 0 L 4.5625 -45.59375 L 13.671875 -45.59375 L 13.671875 -36.484375 L 22.796875 -36.484375 L 22.796875 -27.359375 L 13.671875 -27.359375 L 13.671875 0 Z M 22.796875 -18.234375 L 22.796875 -27.359375 L 31.921875 -27.359375 L 31.921875 -18.234375 Z M 22.796875 -18.234375 "/></g></g></g><g fill="#ffffff" fill-opacity="1"><g transform="translate(151.654434, 279.374329)"><g><path d="M 41.03125 -9.125 L 41.03125 0 L 13.671875 0 L 13.671875 -9.125 Z M 4.5625 -9.125 L 4.5625 -36.484375 L 13.671875 -36.484375 L 13.671875 -9.125 Z M 13.671875 -36.484375 L 13.671875 -45.59375 L 41.03125 -45.59375 L 41.03125 -36.484375 Z M 41.03125 -9.125 L 41.03125 -36.484375 L 50.15625 -36.484375 L 50.15625 -9.125 Z M 41.03125 -9.125 "/></g></g></g><g fill="#ffffff" fill-opacity="1"><g transform="translate(206.369933, 279.374329)"><g><path d="M 13.671875 -36.484375 L 13.671875 -27.359375 L 4.5625 -27.359375 L 4.5625 -36.484375 Z M 4.5625 -9.125 L 4.5625 -18.234375 L 13.671875 -18.234375 L 13.671875 -9.125 Z M 13.671875 0 L 13.671875 -9.125 L 41.03125 -9.125 L 41.03125 0 Z M 13.671875 -36.484375 L 13.671875 -45.59375 L 41.03125 -45.59375 L 41.03125 -36.484375 Z M 22.796875 -18.234375 L 22.796875 -27.359375 L 41.03125 -27.359375 L 41.03125 -18.234375 Z M 41.03125 -9.125 L 41.03125 -18.234375 L 50.15625 -18.234375 L 50.15625 -9.125 Z M 41.03125 -27.359375 L 41.03125 -36.484375 L 50.15625 -36.484375 L 50.15625 -27.359375 Z M 41.03125 -27.359375 "/></g></g></g><g fill="#ffffff" fill-opacity="1"><g transform="translate(261.085433, 279.374329)"><g><path d="M 13.671875 -36.484375 L 13.671875 -27.359375 L 4.5625 -27.359375 L 4.5625 -45.59375 L 50.15625 -45.59375 L 50.15625 -36.484375 Z M 4.5625 0 L 4.5625 -9.125 L 41.03125 -9.125 L 41.03125 0 Z M 13.671875 -18.234375 L 13.671875 -27.359375 L 41.03125 -27.359375 L 41.03125 -18.234375 Z M 41.03125 -9.125 L 41.03125 -18.234375 L 50.15625 -18.234375 L 50.15625 -9.125 Z M 41.03125 -9.125 "/></g></g></g><path fill="#ffffff" d="M 301.78125 208.121094 L 266.710938 208.121094 C 266.355469 208.121094 266.070312 207.835938 266.070312 207.484375 L 266.070312 179.234375 C 266.070312 176.351562 268.398438 174.003906 271.257812 174.003906 L 297.230469 174.003906 C 300.089844 174.003906 302.417969 176.351562 302.417969 179.234375 L 302.417969 207.484375 C 302.417969 207.835938 302.132812 208.121094 301.78125 208.121094 Z M 267.347656 206.84375 L 301.144531 206.84375 L 301.144531 179.234375 C 301.144531 177.054688 299.386719 175.277344 297.230469 175.277344 L 271.257812 175.277344 C 269.101562 175.277344 267.347656 177.054688 267.347656 179.234375 Z M 267.347656 206.84375 " fill-opacity="1" fill-rule="nonzero"/><path fill="#ffffff" d="M 301.78125 187.472656 L 294.253906 187.472656 C 291.394531 187.472656 289.070312 185.125 289.070312 182.242188 L 289.070312 174.640625 C 289.070312 174.382812 289.222656 174.148438 289.464844 174.050781 C 289.699219 173.953125 289.976562 174.007812 290.160156 174.191406 L 302.234375 186.386719 C 302.414062 186.570312 302.46875 186.84375 302.367188 187.082031 C 302.269531 187.320312 302.039062 187.472656 301.78125 187.472656 Z M 290.34375 176.191406 L 290.34375 182.242188 C 290.34375 184.421875 292.097656 186.199219 294.253906 186.199219 L 300.25 186.199219 Z M 290.34375 176.191406 " fill-opacity="1" fill-rule="nonzero"/><path fill="#ffffff" d="M 291.953125 204.066406 L 276.539062 204.066406 C 275.550781 204.066406 274.75 203.246094 274.75 202.234375 C 274.75 201.242188 275.550781 200.433594 276.539062 200.433594 L 291.953125 200.433594 C 292.921875 200.433594 293.742188 201.261719 293.742188 202.234375 C 293.742188 203.226562 292.921875 204.066406 291.953125 204.066406 Z M 276.539062 201.710938 C 276.261719 201.710938 276.023438 201.953125 276.023438 202.234375 C 276.023438 202.546875 276.25 202.789062 276.539062 202.789062 L 291.953125 202.789062 C 292.226562 202.789062 292.46875 202.53125 292.46875 202.234375 C 292.46875 201.964844 292.21875 201.710938 291.953125 201.710938 Z M 291.953125 199.273438 L 276.539062 199.273438 C 275.550781 199.273438 274.75 198.464844 274.75 197.472656 C 274.75 196.460938 275.550781 195.640625 276.539062 195.640625 L 291.953125 195.640625 C 292.921875 195.640625 293.742188 196.480469 293.742188 197.472656 C 293.742188 198.449219 292.921875 199.273438 291.953125 199.273438 Z M 276.539062 196.917969 C 276.25 196.917969 276.023438 197.160156 276.023438 197.472656 C 276.023438 197.753906 276.261719 197.996094 276.539062 197.996094 L 291.953125 197.996094 C 292.21875 197.996094 292.46875 197.742188 292.46875 197.472656 C 292.46875 197.175781 292.226562 196.917969 291.953125 196.917969 Z M 291.953125 194.480469 L 276.539062 194.480469 C 275.535156 194.480469 274.75 193.6875 274.75 192.679688 C 274.75 191.667969 275.535156 190.875 276.539062 190.875 L 291.953125 190.875 C 292.941406 190.875 293.742188 191.683594 293.742188 192.679688 C 293.742188 193.671875 292.941406 194.480469 291.953125 194.480469 Z M 276.539062 192.152344 C 276.246094 192.152344 276.023438 192.378906 276.023438 192.679688 C 276.023438 192.976562 276.246094 193.203125 276.539062 193.203125 L 291.953125 193.203125 C 292.230469 193.203125 292.46875 192.960938 292.46875 192.679688 C 292.46875 192.394531 292.230469 192.152344 291.953125 192.152344 Z M 276.539062 192.152344 " fill-opacity="1" fill-rule="nonzero"/><g clip-path="url(#1025f72d7b)"><path fill="#ffffff" d="M 304.335938 231.292969 L 264.15625 231.292969 C 261.140625 231.292969 258.6875 228.816406 258.6875 225.777344 L 258.6875 212.359375 C 258.6875 209.320312 261.140625 206.84375 264.15625 206.84375 L 304.335938 206.84375 C 307.351562 206.84375 309.804688 209.320312 309.804688 212.359375 L 309.804688 225.777344 C 309.804688 228.816406 307.351562 231.292969 304.335938 231.292969 Z M 264.15625 208.121094 C 261.84375 208.121094 259.960938 210.023438 259.960938 212.359375 L 259.960938 225.777344 C 259.960938 228.113281 261.84375 230.015625 264.15625 230.015625 L 304.335938 230.015625 C 306.648438 230.015625 308.527344 228.113281 308.527344 225.777344 L 308.527344 212.359375 C 308.527344 210.023438 306.648438 208.121094 304.335938 208.121094 Z M 264.15625 208.121094 " fill-opacity="1" fill-rule="nonzero"/></g><g clip-path="url(#0419bd1a46)"><path fill="#ffffff" d="M 304.335938 231.292969 L 264.15625 231.292969 C 261.140625 231.292969 258.6875 228.816406 258.6875 225.777344 L 258.6875 219.082031 C 258.6875 218.730469 258.972656 218.445312 259.324219 218.445312 L 264.40625 218.445312 C 264.757812 218.445312 265.042969 218.730469 265.042969 219.082031 C 265.042969 219.433594 264.757812 219.71875 264.40625 219.71875 L 259.960938 219.71875 L 259.960938 225.777344 C 259.960938 228.113281 261.84375 230.015625 264.15625 230.015625 L 304.335938 230.015625 C 306.648438 230.015625 308.527344 228.113281 308.527344 225.777344 L 308.527344 219.71875 L 302.285156 219.71875 C 301.933594 219.71875 301.648438 219.433594 301.648438 219.082031 C 301.648438 218.730469 301.933594 218.445312 302.285156 218.445312 L 309.164062 218.445312 C 309.519531 218.445312 309.804688 218.730469 309.804688 219.082031 L 309.804688 225.777344 C 309.804688 228.816406 307.351562 231.292969 304.335938 231.292969 Z M 304.335938 231.292969 " fill-opacity="1" fill-rule="nonzero"/></g><path fill="#ffffff" d="M 299.058594 221.054688 L 296.054688 221.054688 C 295.84375 221.054688 295.648438 220.953125 295.53125 220.78125 C 295.414062 220.613281 295.382812 220.394531 295.453125 220.199219 L 296.9375 216.03125 C 297.027344 215.777344 297.269531 215.609375 297.539062 215.609375 C 297.808594 215.609375 298.046875 215.777344 298.140625 216.027344 L 299.65625 220.195312 C 299.730469 220.390625 299.699219 220.609375 299.582031 220.78125 C 299.460938 220.953125 299.265625 221.054688 299.058594 221.054688 Z M 296.957031 219.777344 L 298.144531 219.777344 L 297.546875 218.128906 Z M 296.957031 219.777344 " fill-opacity="1" fill-rule="nonzero"/><path fill="#ffffff" d="M 301.835938 226.726562 C 301.566406 226.726562 301.21875 226.695312 300.890625 226.472656 C 300.613281 226.289062 300.394531 225.996094 300.230469 225.585938 L 299.332031 223.011719 L 295.769531 223.011719 L 294.855469 225.566406 C 294.75 225.925781 294.53125 226.234375 294.222656 226.445312 C 293.660156 226.820312 292.828125 226.832031 292.128906 226.359375 C 291.832031 226.140625 291.511719 225.753906 291.511719 225.066406 C 291.511719 224.894531 291.511719 224.664062 291.609375 224.410156 L 295.902344 212.539062 C 296.15625 211.8125 296.738281 211.410156 297.539062 211.410156 C 297.902344 211.410156 298.246094 211.507812 298.515625 211.691406 C 298.851562 211.882812 299.035156 212.210938 299.164062 212.5 L 303.476562 224.367188 C 303.484375 224.394531 303.519531 224.519531 303.523438 224.550781 C 303.566406 224.636719 303.570312 224.6875 303.570312 224.78125 L 303.570312 225.011719 C 303.570312 225.515625 303.375 225.96875 303.015625 226.28125 C 302.683594 226.578125 302.285156 226.726562 301.835938 226.726562 Z M 295.324219 221.734375 L 299.785156 221.734375 C 300.058594 221.734375 300.300781 221.90625 300.390625 222.160156 L 301.429688 225.140625 C 301.511719 225.34375 301.589844 225.40625 301.601562 225.414062 C 301.640625 225.441406 301.960938 225.511719 302.171875 225.324219 C 302.273438 225.238281 302.292969 225.105469 302.292969 225.011719 L 302.292969 224.878906 C 302.285156 224.855469 302.28125 224.835938 302.277344 224.820312 L 297.980469 212.976562 C 297.90625 212.808594 297.863281 212.785156 297.839844 212.769531 C 297.761719 212.71875 297.664062 212.6875 297.539062 212.6875 C 297.25 212.6875 297.175781 212.769531 297.105469 212.96875 L 292.804688 224.859375 C 292.789062 224.902344 292.789062 224.988281 292.789062 225.066406 C 292.789062 225.261719 292.84375 225.300781 292.871094 225.324219 C 293.109375 225.480469 293.421875 225.445312 293.507812 225.386719 C 293.535156 225.367188 293.597656 225.328125 293.644531 225.167969 L 294.722656 222.15625 C 294.8125 221.902344 295.050781 221.734375 295.324219 221.734375 Z M 295.324219 221.734375 " fill-opacity="1" fill-rule="nonzero"/><path fill="#ffffff" d="M 289.371094 226.726562 C 288.875 226.726562 288.46875 226.566406 288.160156 226.253906 C 287.84375 225.9375 287.691406 225.53125 287.691406 225.011719 L 287.691406 214.957031 L 286.085938 214.957031 C 285.5625 214.957031 285.15625 214.800781 284.84375 214.480469 C 284.503906 214.089844 284.351562 213.683594 284.351562 213.210938 C 284.351562 212.710938 284.542969 212.253906 284.878906 211.964844 C 285.171875 211.664062 285.589844 211.496094 286.085938 211.496094 L 292.710938 211.496094 C 293.179688 211.496094 293.597656 211.667969 293.921875 211.996094 C 294.222656 212.253906 294.414062 212.707031 294.414062 213.210938 C 294.414062 213.6875 294.265625 214.09375 293.953125 214.453125 C 293.613281 214.796875 293.207031 214.957031 292.710938 214.957031 L 291.101562 214.957031 L 291.101562 225.011719 C 291.101562 225.53125 290.949219 225.9375 290.636719 226.253906 C 290.324219 226.566406 289.898438 226.726562 289.371094 226.726562 Z M 286.085938 212.773438 C 285.898438 212.773438 285.816406 212.832031 285.753906 212.894531 C 285.671875 212.964844 285.625 213.070312 285.625 213.210938 C 285.625 213.375 285.671875 213.488281 285.78125 213.613281 C 285.785156 213.617188 285.84375 213.679688 286.085938 213.679688 L 288.332031 213.679688 C 288.683594 213.679688 288.96875 213.964844 288.96875 214.316406 L 288.96875 225.011719 C 288.96875 225.257812 289.035156 225.324219 289.0625 225.355469 C 289.09375 225.386719 289.160156 225.449219 289.371094 225.449219 C 289.492188 225.449219 289.652344 225.433594 289.730469 225.355469 C 289.761719 225.324219 289.828125 225.257812 289.828125 225.011719 L 289.828125 214.316406 C 289.828125 213.964844 290.113281 213.679688 290.464844 213.679688 L 292.710938 213.679688 C 292.921875 213.679688 292.984375 213.617188 293.015625 213.585938 C 293.097656 213.488281 293.140625 213.375 293.140625 213.210938 C 293.140625 213.070312 293.09375 212.964844 293.050781 212.929688 C 292.933594 212.808594 292.839844 212.773438 292.710938 212.773438 Z M 286.085938 212.773438 " fill-opacity="1" fill-rule="nonzero"/><path fill="#ffffff" d="M 282.433594 226.640625 L 276.957031 226.640625 C 276.464844 226.640625 276.058594 226.480469 275.746094 226.167969 C 275.429688 225.890625 275.253906 225.453125 275.253906 224.894531 L 275.253906 213.210938 C 275.253906 212.507812 275.558594 212.128906 275.816406 211.9375 C 276.074219 211.667969 276.492188 211.496094 276.957031 211.496094 L 282.347656 211.496094 C 282.816406 211.496094 283.238281 211.667969 283.5625 211.996094 C 283.863281 212.257812 284.054688 212.710938 284.054688 213.210938 C 284.054688 213.683594 283.902344 214.089844 283.589844 214.449219 C 283.25 214.796875 282.84375 214.957031 282.347656 214.957031 L 278.691406 214.957031 L 278.691406 216.882812 L 282.179688 216.882812 C 282.675781 216.882812 283.09375 217.054688 283.421875 217.386719 C 283.746094 217.714844 283.914062 218.132812 283.914062 218.601562 C 283.914062 219.113281 283.75 219.539062 283.421875 219.871094 C 283.046875 220.195312 282.644531 220.34375 282.179688 220.34375 L 278.691406 220.34375 L 278.691406 223.179688 L 282.433594 223.179688 C 282.9375 223.179688 283.367188 223.34375 283.675781 223.652344 C 283.976562 223.960938 284.136719 224.390625 284.136719 224.894531 C 284.136719 225.429688 283.980469 225.855469 283.671875 226.167969 C 283.367188 226.476562 282.9375 226.640625 282.433594 226.640625 Z M 276.957031 212.773438 C 276.832031 212.773438 276.738281 212.808594 276.652344 212.894531 C 276.5625 212.972656 276.527344 213.054688 276.527344 213.210938 L 276.527344 224.894531 C 276.527344 225.15625 276.597656 225.21875 276.621094 225.238281 C 276.6875 225.304688 276.75 225.363281 276.957031 225.363281 L 282.433594 225.363281 C 282.523438 225.363281 282.683594 225.351562 282.765625 225.269531 C 282.847656 225.183594 282.863281 225 282.863281 224.894531 C 282.863281 224.734375 282.828125 224.613281 282.765625 224.550781 C 282.683594 224.46875 282.523438 224.457031 282.433594 224.457031 L 278.054688 224.457031 C 277.703125 224.457031 277.417969 224.171875 277.417969 223.820312 L 277.417969 219.707031 C 277.417969 219.355469 277.703125 219.066406 278.054688 219.066406 L 282.179688 219.066406 C 282.332031 219.066406 282.449219 219.027344 282.550781 218.941406 C 282.574219 218.914062 282.640625 218.828125 282.640625 218.601562 C 282.640625 218.46875 282.597656 218.371094 282.515625 218.28125 C 282.453125 218.21875 282.367188 218.160156 282.179688 218.160156 L 278.054688 218.160156 C 277.703125 218.160156 277.417969 217.875 277.417969 217.523438 L 277.417969 214.316406 C 277.417969 213.964844 277.703125 213.679688 278.054688 213.679688 L 282.347656 213.679688 C 282.5625 213.679688 282.625 213.617188 282.652344 213.585938 C 282.734375 213.488281 282.777344 213.375 282.777344 213.210938 C 282.777344 213.070312 282.730469 212.964844 282.6875 212.925781 C 282.570312 212.808594 282.476562 212.773438 282.347656 212.773438 Z M 276.957031 212.773438 " fill-opacity="1" fill-rule="nonzero"/><path fill="#ffffff" d="M 269.65625 218.046875 L 267.691406 218.046875 C 267.339844 218.046875 267.054688 217.761719 267.054688 217.410156 L 267.054688 214.316406 C 267.054688 213.964844 267.339844 213.679688 267.691406 213.679688 L 269.65625 213.679688 C 270.308594 213.679688 270.867188 213.890625 271.261719 214.292969 C 271.6875 214.726562 271.894531 215.234375 271.894531 215.847656 C 271.894531 216.453125 271.699219 216.980469 271.3125 217.410156 C 270.886719 217.839844 270.335938 218.046875 269.65625 218.046875 Z M 268.328125 216.769531 L 269.65625 216.769531 C 269.988281 216.769531 270.226562 216.695312 270.382812 216.535156 C 270.539062 216.359375 270.621094 216.140625 270.621094 215.847656 C 270.621094 215.566406 270.546875 215.386719 270.355469 215.191406 C 270.199219 215.035156 269.964844 214.957031 269.65625 214.957031 L 268.328125 214.957031 Z M 268.328125 216.769531 " fill-opacity="1" fill-rule="nonzero"/><path fill="#ffffff" d="M 269.542969 224.457031 L 267.691406 224.457031 C 267.339844 224.457031 267.054688 224.171875 267.054688 223.820312 L 267.054688 219.59375 C 267.054688 219.238281 267.339844 218.953125 267.691406 218.953125 L 269.542969 218.953125 C 269.980469 218.953125 270.371094 219.03125 270.707031 219.179688 C 271.015625 219.304688 271.316406 219.511719 271.601562 219.796875 C 271.820312 220.054688 272.050781 220.355469 272.171875 220.726562 C 272.296875 221 272.371094 221.34375 272.371094 221.691406 C 272.371094 222.097656 272.285156 222.457031 272.097656 222.792969 C 271.96875 223.09375 271.777344 223.378906 271.542969 223.613281 C 271.289062 223.871094 270.996094 224.0625 270.625 224.210938 C 270.363281 224.363281 269.984375 224.457031 269.542969 224.457031 Z M 268.328125 223.179688 L 269.542969 223.179688 C 269.765625 223.179688 269.933594 223.144531 270.078125 223.0625 C 270.355469 222.945312 270.503906 222.847656 270.636719 222.71875 C 270.761719 222.589844 270.867188 222.433594 270.957031 222.226562 C 271.0625 222.03125 271.097656 221.882812 271.097656 221.691406 C 271.097656 221.523438 271.058594 221.355469 270.984375 221.183594 C 270.910156 220.964844 270.773438 220.789062 270.660156 220.65625 C 270.53125 220.53125 270.378906 220.425781 270.207031 220.355469 C 270.015625 220.269531 269.792969 220.230469 269.542969 220.230469 L 268.328125 220.230469 Z M 268.328125 223.179688 " fill-opacity="1" fill-rule="nonzero"/><path fill="#ffffff" d="M 269.542969 226.640625 L 266.597656 226.640625 C 266.148438 226.640625 265.75 226.492188 265.414062 226.199219 C 265.066406 225.847656 264.894531 225.394531 264.894531 224.894531 L 264.894531 213.210938 C 264.894531 212.710938 265.085938 212.253906 265.421875 211.964844 C 265.773438 211.65625 266.167969 211.496094 266.597656 211.496094 L 269.65625 211.496094 C 270.347656 211.496094 270.953125 211.609375 271.460938 211.835938 C 271.984375 212.03125 272.46875 212.335938 272.835938 212.707031 C 273.199219 213.042969 273.503906 213.46875 273.746094 213.992188 C 273.976562 214.570312 274.085938 215.097656 274.085938 215.59375 C 274.085938 217.003906 273.601562 217.902344 273.023438 218.476562 C 273.339844 218.742188 273.621094 219.0625 273.867188 219.441406 C 274.316406 220.167969 274.535156 220.96875 274.535156 221.832031 C 274.535156 222.363281 274.4375 222.914062 274.222656 223.5625 C 273.996094 224.152344 273.679688 224.65625 273.246094 225.128906 C 272.832031 225.578125 272.292969 225.945312 271.648438 226.222656 C 271.066406 226.5 270.371094 226.640625 269.542969 226.640625 Z M 266.597656 212.773438 C 266.527344 212.773438 266.417969 212.789062 266.257812 212.925781 C 266.214844 212.964844 266.167969 213.070312 266.167969 213.210938 L 266.167969 224.894531 C 266.167969 225.011719 266.1875 225.167969 266.292969 225.269531 C 266.359375 225.328125 266.457031 225.363281 266.597656 225.363281 L 269.542969 225.363281 C 270.175781 225.363281 270.691406 225.265625 271.125 225.058594 C 271.625 224.84375 272.015625 224.578125 272.308594 224.265625 C 272.636719 223.90625 272.863281 223.546875 273.023438 223.136719 C 273.179688 222.648438 273.261719 222.226562 273.261719 221.832031 C 273.261719 221.207031 273.101562 220.632812 272.792969 220.125 C 272.476562 219.644531 272.09375 219.300781 271.640625 219.097656 C 271.417969 218.996094 271.273438 218.777344 271.265625 218.535156 C 271.257812 218.292969 271.390625 218.066406 271.605469 217.949219 C 272.414062 217.519531 272.808594 216.75 272.808594 215.59375 C 272.808594 215.257812 272.730469 214.890625 272.574219 214.496094 C 272.417969 214.160156 272.207031 213.863281 271.949219 213.625 C 271.695312 213.367188 271.355469 213.15625 270.976562 213.015625 C 270.601562 212.847656 270.167969 212.773438 269.65625 212.773438 Z M 266.597656 212.773438 " fill-opacity="1" fill-rule="nonzero"/></svg>