<svg xmlns="http://www.w3.org/2000/svg" xmlns:xlink="http://www.w3.org/1999/xlink" width="500" zoomAndPan="magnify" viewBox="0 0 375 374.999991" height="500" preserveAspectRatio="xMidYMid meet" version="1.0"><defs><g/><clipPath id="f6c5e1f967"><path d="M 49.46875 7.054688 L 314.660156 7.054688 L 314.660156 307.054688 L 49.46875 307.054688 Z M 49.46875 7.054688 " clip-rule="nonzero"/></clipPath></defs><g clip-path="url(#f6c5e1f967)"><path fill="#000000" d="M 250.667969 149.527344 C 249.164062 149.527344 247.945312 148.308594 247.945312 146.800781 C 247.945312 133.511719 239.203125 122.699219 228.457031 122.699219 C 217.714844 122.699219 208.972656 133.511719 208.972656 146.800781 C 208.972656 148.308594 207.753906 149.527344 206.25 149.527344 C 204.746094 149.527344 203.527344 148.308594 203.527344 146.800781 C 203.527344 130.503906 214.710938 117.246094 228.457031 117.246094 C 242.207031 117.246094 253.390625 130.503906 253.390625 146.800781 C 253.390625 148.308594 252.171875 149.527344 250.667969 149.527344 Z M 152.707031 174.644531 C 154.210938 174.644531 155.433594 175.867188 155.433594 177.375 C 155.433594 193.867188 166.339844 207.285156 179.753906 207.285156 C 193.164062 207.285156 204.074219 193.867188 204.074219 177.375 C 204.074219 175.867188 205.292969 174.644531 206.796875 174.644531 C 208.300781 174.644531 209.519531 175.867188 209.519531 177.375 C 209.519531 196.875 196.167969 212.738281 179.753906 212.738281 C 163.339844 212.738281 149.984375 196.875 149.984375 177.375 C 149.984375 175.867188 151.203125 174.644531 152.707031 174.644531 Z M 109.566406 146.800781 C 109.566406 148.308594 108.347656 149.527344 106.839844 149.527344 C 105.335938 149.527344 104.117188 148.308594 104.117188 146.800781 C 104.117188 130.503906 115.300781 117.246094 129.050781 117.246094 C 142.796875 117.246094 153.984375 130.503906 153.984375 146.800781 C 153.984375 148.308594 152.765625 149.527344 151.261719 149.527344 C 149.753906 149.527344 148.539062 148.308594 148.539062 146.800781 C 148.539062 133.511719 139.792969 122.699219 129.050781 122.699219 C 118.304688 122.699219 109.566406 133.511719 109.566406 146.800781 Z M 284.671875 69.335938 L 292.890625 40.355469 C 293.710938 40.480469 294.542969 40.558594 295.398438 40.558594 C 295.960938 40.558594 296.53125 40.53125 297.101562 40.476562 C 301.597656 40.023438 305.640625 37.847656 308.488281 34.355469 C 311.304688 30.898438 312.609375 26.550781 312.15625 22.117188 C 311.222656 12.929688 302.953125 6.210938 293.71875 7.140625 C 289.222656 7.59375 285.179688 9.765625 282.332031 13.257812 C 279.515625 16.71875 278.210938 21.0625 278.660156 25.496094 C 279.253906 31.335938 282.816406 36.167969 287.703125 38.683594 L 279.320312 68.242188 C 277.5 67.996094 275.644531 67.855469 273.757812 67.855469 L 90.367188 67.855469 C 89.347656 67.855469 88.335938 67.90625 87.332031 67.980469 L 79.023438 38.683594 C 83.90625 36.167969 87.46875 31.335938 88.0625 25.496094 C 88.515625 21.0625 87.210938 16.71875 84.390625 13.257812 C 81.546875 9.765625 77.503906 7.59375 73.007812 7.140625 C 63.792969 6.203125 55.503906 12.929688 54.566406 22.117188 C 54.117188 26.550781 55.417969 30.898438 58.238281 34.359375 C 61.085938 37.851562 65.128906 40.023438 69.621094 40.476562 C 70.195312 40.53125 70.765625 40.558594 71.328125 40.558594 C 72.179688 40.558594 73.011719 40.480469 73.835938 40.355469 L 81.886719 68.742188 C 63.390625 72.636719 49.46875 88.992188 49.46875 108.523438 L 49.46875 218.304688 C 49.46875 239.738281 66.386719 257.316406 87.644531 258.527344 L 87.644531 302.511719 C 87.644531 304.320312 88.71875 305.953125 90.378906 306.675781 C 90.964844 306.929688 91.585938 307.054688 92.195312 307.054688 C 93.328125 307.054688 94.441406 306.632812 95.289062 305.835938 L 143.445312 261.429688 C 145.570312 259.601562 148.292969 258.589844 151.105469 258.589844 L 273.757812 258.589844 C 296.3125 258.589844 314.660156 240.347656 314.660156 217.925781 L 314.660156 108.523438 C 314.660156 89.855469 301.941406 74.097656 284.671875 69.335938 " fill-opacity="1" fill-rule="nonzero"/></g><g fill="#000000" fill-opacity="1"><g transform="translate(86.644474, 351.378208)"><g><path d="M 35.796875 0 L 35.796875 -23.875 L 27.84375 -23.875 L 27.84375 -31.828125 L 35.796875 -31.828125 L 35.796875 -39.78125 L 43.75 -39.78125 L 43.75 0 Z M 3.984375 0 L 3.984375 -39.78125 L 11.9375 -39.78125 L 11.9375 -31.828125 L 19.890625 -31.828125 L 19.890625 -23.875 L 11.9375 -23.875 L 11.9375 0 Z M 19.890625 -15.90625 L 19.890625 -23.875 L 27.84375 -23.875 L 27.84375 -15.90625 Z M 19.890625 -15.90625 "/></g></g></g><g fill="#000000" fill-opacity="1"><g transform="translate(134.379927, 351.378208)"><g><path d="M 35.796875 -7.953125 L 35.796875 0 L 11.9375 0 L 11.9375 -7.953125 Z M 3.984375 -7.953125 L 3.984375 -31.828125 L 11.9375 -31.828125 L 11.9375 -7.953125 Z M 11.9375 -31.828125 L 11.9375 -39.78125 L 35.796875 -39.78125 L 35.796875 -31.828125 Z M 35.796875 -7.953125 L 35.796875 -31.828125 L 43.75 -31.828125 L 43.75 -7.953125 Z M 35.796875 -7.953125 "/></g></g></g><g fill="#000000" fill-opacity="1"><g transform="translate(182.115381, 351.378208)"><g><path d="M 11.9375 -31.828125 L 11.9375 -23.875 L 3.984375 -23.875 L 3.984375 -31.828125 Z M 3.984375 -7.953125 L 3.984375 -15.90625 L 11.9375 -15.90625 L 11.9375 -7.953125 Z M 11.9375 0 L 11.9375 -7.953125 L 35.796875 -7.953125 L 35.796875 0 Z M 11.9375 -31.828125 L 11.9375 -39.78125 L 35.796875 -39.78125 L 35.796875 -31.828125 Z M 19.890625 -15.90625 L 19.890625 -23.875 L 35.796875 -23.875 L 35.796875 -15.90625 Z M 35.796875 -7.953125 L 35.796875 -15.90625 L 43.75 -15.90625 L 43.75 -7.953125 Z M 35.796875 -23.875 L 35.796875 -31.828125 L 43.75 -31.828125 L 43.75 -23.875 Z M 35.796875 -23.875 "/></g></g></g><g fill="#000000" fill-opacity="1"><g transform="translate(229.850835, 351.378208)"><g><path d="M 11.9375 -31.828125 L 11.9375 -23.875 L 3.984375 -23.875 L 3.984375 -39.78125 L 43.75 -39.78125 L 43.75 -31.828125 Z M 3.984375 0 L 3.984375 -7.953125 L 35.796875 -7.953125 L 35.796875 0 Z M 11.9375 -15.90625 L 11.9375 -23.875 L 35.796875 -23.875 L 35.796875 -15.90625 Z M 35.796875 -7.953125 L 35.796875 -15.90625 L 43.75 -15.90625 L 43.75 -7.953125 Z M 35.796875 -7.953125 "/></g></g></g></svg>